# xmcd
#
# Track frame offsets:
#	150
#	35111
#	67395
#	90134
#
# Disc length: 1286 seconds
#
# Revision: 0
# Processed by: cddbd v1.5.1PL0 Copyright (c) Steve Scherf et al.
# Submitted via: dBpowerAMP V4.0
#
DISCID=31050404
DTITLE=Vassilis Tsilichristos - Kamasutra by I.D.F
DYEAR=1999
DGENRE=Ethnic
TTITLE0=Kamasutra (Pacha Mix)
TTITLE1=Kamasutra (12'' Mix)
TTITLE2=Kamasutra (Bedroom Mix)
TTITLE3=Kamasutra (Barompapella Mix)
EXTD=
EXTT0=
EXTT1=
EXTT2=
EXTT3=
PLAYORDER=
